<svg id="Ebene_1" data-name="Ebene 1" xmlns="http://www.w3.org/2000/svg" xmlns:xlink="http://www.w3.org/1999/xlink" viewBox="0 0 2575.33 1582.14"><defs><style>.cls-1{fill:none;}.cls-2{clip-path:url(#clip-path);}.cls-3{fill:#f0a56b;}.cls-4{fill:#c6ecc7;}.cls-5{fill:#f72143;}.cls-6{fill:#101b5f;}.cls-7{fill:#1f33f6;}.cls-8{fill:#f85f28;}.cls-9{fill:#e57a9b;}.cls-10{fill:#1e8059;}</style><clipPath id="clip-path" transform="translate(231.54 187.45)"><rect class="cls-1" width="2146" height="1279.84"/></clipPath></defs><title>hero2</title><g class="cls-2"><rect class="cls-3" x="176.09" y="142.56" width="2204.34" height="1325.35"/><path class="cls-4" d="M-131.87-94.47A4409.72,4409.72,0,0,1,711-144.37c56.31,2.07,114.54,5.74,164.63,31.55,4.83,2.49,9.75,5.34,12.75,9.88,3.3,5,3.81,11.24,4.17,17.2,1.65,27.08,2.11,55.16-8.23,80.23C871.66,25.25,844,47.78,813.76,61.72s-63.2,20.44-95.65,27.76c-148.66,33.52-296.18,88.58-411.72,188-47.32,40.7-93.87,90.88-155.89,97.85-41.76,4.69-82.78-11.6-121.12-28.79C-2.22,332.32-34.06,316.89-59,292.81c-42-40.62-58.93-100.47-67.73-158.23C-138.85,54.88-138-30.06-101.82-102.1" transform="translate(231.54 187.45)"/><path class="cls-5" d="M698.29-61.25C629-40.76,576.35,26.62,573.19,98.8s43.43,143.89,110.65,170.36c77,30.32,165.6,3.31,245.92,23.34,54.63,13.62,101.9,48.14,155.69,64.78,130.89,40.5,268-30.36,404.57-41.75,61.41-5.12,129.3,4.67,171.63,49.45,56.65,59.93,45.7,155.7,22.47,234.83s-55.18,163.27-28.78,241.39c12,35.61,35.35,66.31,50,100.95,34.08,80.74,17.82,173.19,32,259.67,4.2,25.6,11.71,51.86,29.46,70.78,25.94,27.66,67.2,33.41,105.07,35.38a1015.09,1015.09,0,0,0,407.87-63.07c11.94-4.48,24.27-9.51,32.67-19.1,8.78-10,12-23.63,14.66-36.71C2378.17,934,2297.35,673,2281.55,413.31c-6.83-112.24-1.62-226.45-29.52-335.38s-97.31-215.61-204.21-250.49c-52.7-17.2-109.43-15.57-164.84-13.93q-344,10.21-688.13,12.07c-175.17.95-365.24,5.21-502.36,114.22" transform="translate(231.54 187.45)"/><path class="cls-6" d="M-82.34,1007c101.82-4.78,197.58-74.92,232.86-170.55,32.93-89.27,15.1-187.94,12.93-283.06A842.26,842.26,0,0,1,216,241.26C246.77,158.51,293.1,78,365.75,27.82,483.56-53.59,661.42-30.59,754.66,78.11,805.21,137.05,830.12,213,861.56,284s74.69,142.79,145,175.83c53.57,25.19,115.23,24.24,173.24,36.06S1299.61,540.36,1313,598c15.86,68-42.31,143-11.16,205.5,22.77,45.71,80.86,58.58,121.87,89,50.49,37.48,73.77,101.73,83.06,163.92,8.89,59.56,6,125-30,173.37-39.48,53.11-108.83,73.25-173.82,85.7-120.94,23.17-244.25,31.17-367.26,36.9q-320.84,14.94-642.2,9.66c-66.16-1.09-133.22-3-196.63-21.87-28.87-8.61-57.77-21.46-77.2-44.48-12.63-15-20.48-33.27-28.14-51.29L-70.33,1099c-12.83-30.14-25.72-64.49-12.77-94.57" transform="translate(231.54 187.45)"/><path class="cls-7" d="M-11.91,1389c-59.53,11.81-121.38-23.37-154.82-74s-42.77-113.67-42.12-174.36,10.38-121,11.35-181.68c2.46-153.84-51.31-307.26-28.3-459.39a461.86,461.86,0,0,1,41.64-133.48c15.93-32.58,36.46-64.07,66.16-84.9,24.37-17.09,53.46-26,82.41-33,61-14.62,125.08-21.53,186.24-7.76s119.18,50.5,148,106.17c55.54,107.33-6.83,254,65,351.17,14.65,19.81,33.85,35.68,51.81,52.53,124.53,116.8,192.94,291,181.19,461.3-1,14.85-2.81,30.25-10.66,42.9-14.23,22.93-43.56,30.34-70,35.81L77.78,1381c-41.81,8.65-84.54,17.34-126.91,12.1" transform="translate(231.54 187.45)"/><path class="cls-3" d="M309.36,1295.55c47.58-13.25,87.24-52,101.61-99.25,11.7-38.49,7.24-79.9.56-119.57-21-124.69-62.69-244.82-93.38-367.49S267.76,458.07,291.64,333.9c6.76-35.16,17.9-71.26,43.26-96.53,24.32-24.23,58.65-35.41,92.3-42.24,62.51-12.69,130.52-12.35,186.59,18.05,56.54,30.65,94.42,88.86,112.35,150.63s17.9,127.27,13.7,191.45c-2.13,32.57-5.33,65.24-13.53,96.84-14.71,56.71-45,108.18-62.86,164-13.47,42.07-19.7,86.11-24.17,130.06-8.72,85.82-9.62,177.78,34.52,251.89,21.79,36.58,53.18,66.3,84.17,95.51q-222.31,10.4-445,3.49" transform="translate(231.54 187.45)"/><path class="cls-8" d="M506.17,418l-69.81,93.55c-2,2.72-4.13,5.61-4.54,9-.55,4.63,2.19,8.94,4.77,12.82a591.17,591.17,0,0,1,54.69,103.34,508.24,508.24,0,0,0,87.77-99.31,17.55,17.55,0,0,0,3.17-6.55c.47-2.67-.31-5.4-1.25-7.94C565.89,482,509,463.39,504.38,420.06" transform="translate(231.54 187.45)"/><path class="cls-6" d="M521.19,485.76c-1.64,6.79-3.16,14.41.46,20.38s14.71,6.71,16.44,0a11.24,11.24,0,0,0-.81-6.64,33.37,33.37,0,0,0-14.8-17.22" transform="translate(231.54 187.45)"/><path class="cls-6" d="M485.09,482.36c-1.37,8.43-14.53,12.43-13.29,20.89,1.14,7.8,14.22,7.14,17.83.14s.85-15.46-2-22.82" transform="translate(231.54 187.45)"/><path class="cls-4" d="M590.11,338.53a38,38,0,0,0-56,36.3,22.11,22.11,0,0,0,3.48,11.09c4,5.65,11.06,8,17.67,10,14.43,4.31,29.71,9.16,39.42,20.67,5.88,7,10.05,16.56,18.78,19.23,7.53,2.31,16-2,20.35-8.51s5.41-14.81,5-22.68c-1.4-30.35-23.34-58.69-52.37-67.66" transform="translate(231.54 187.45)"/><path class="cls-4" d="M454.8,321.75c-19.5-2.88-39.93,11.76-43.47,31.15-.87,4.75-.84,9.66-2.18,14.3-5,17.36-26.72,25.21-33,42.15-6.14,16.59,7.09,36.32,24.43,39.8s35.57-7.1,44.22-22.52C451.36,415,454,400,465.23,392.71c3.09-2,6.65-3.28,9.68-5.39,5.21-3.62,8.46-9.45,10.73-15.37,4.6-12,5.67-26.09-.45-37.41s-20.79-18.36-32.57-13.17" transform="translate(231.54 187.45)"/><circle class="cls-6" cx="695.22" cy="539.78" r="18.68"/><circle class="cls-6" cx="798.46" cy="555.51" r="15.73"/><path class="cls-6" d="M475.24,550.22c11.9-4.13,23.79-8.3,35.71-12.39,2-.7,4.41-1.95,6.61-1.61s4.94,2.7,6.86,3.94q8.27,5.34,16.53,10.72c8.4,5.45,16.19-8,7.83-13.4-10.21-6.62-22.88-18.9-36-16.36-6.72,1.31-13.32,4.3-19.78,6.54l-21.89,7.59c-9.37,3.25-5.34,18.24,4.12,15Z" transform="translate(231.54 187.45)"/><path class="cls-9" d="M246.65,974.71A64,64,0,0,0,159.53,1020c-3.25,14.69-1.28,30.26-5.44,44.72s-13.83,26.25-20.59,39.52c-8.11,15.94-11.89,34.67-7.32,52s18.54,32.56,36.14,35.74c17.05,3.08,34.55-5.31,46.77-17.6,10.08-10.13,17.42-22.85,28.2-32.24,15.52-13.51,36.48-18.73,56.78-22.1s41.23-5.46,59.84-14.24,34.86-26.16,35.39-46.73c.51-19.79-13.73-37.54-31-47.29s-37.22-13.12-56.66-16.88-39.39-8.34-55.43-19.94" transform="translate(231.54 187.45)"/><path class="cls-9" d="M58.62,1019.48c-5.91,9.8-5.94,22.47-1.56,33s12.78,19.12,22.43,25.27c6.56,4.18,14.44,7.42,22,5.6,9.25-2.23,15.12-11.16,19.44-19.63,3.91-7.68,7.43-16.21,5.88-24.69a32.25,32.25,0,0,0-4.63-11c-6.9-11.13-18-20.1-30.85-22.46s-27.37,2.86-34.19,14" transform="translate(231.54 187.45)"/><path class="cls-9" d="M114,864.8c-11.29,10.69-15.25,27.69-12.39,43s11.82,28.9,22.9,39.8c3.69,3.63,7.72,7.06,12.52,9,13.34,5.39,29.08-2.6,37.17-14.5,7.66-11.26,10.12-25.73,7.46-39.09s-10.26-25.53-20.53-34.48c-8.85-7.7-21.15-13.24-32.23-9.36-6.74,2.36-12.16,7.91-19.14,9.4" transform="translate(231.54 187.45)"/><path class="cls-9" d="M272.89,808.12c-7.31,8.14-11.69,18.44-15.67,28.63-6.55,16.75-12.43,34.13-12.89,52.11s5.22,36.86,18.65,48.83c7.75,6.9,19.45,11.13,28.52,6.08,3.79-2.11,6.62-5.55,9.3-9A129.28,129.28,0,0,0,313.66,916c13-24.22,11.42-55.52-3.83-78.36-5.88-8.81-13.52-16.29-21.1-23.7-4.56-4.45-12.07-9-16.51-4.42" transform="translate(231.54 187.45)"/><path class="cls-9" d="M379.56,899.23A206,206,0,0,0,352,938.89c-4.06,7.61-7.73,16.31-5.49,24.63,2.2,8.15,9.54,13.83,17,17.82,4,2.15,8.26,4,12.78,4.54,7.85.9,15.82-2.51,21.51-8S407,965,409.16,957.42a66.87,66.87,0,0,0-3.42-45c-2.27-5-5.33-9.94-10-12.85s-11.29-3.26-15.42.38" transform="translate(231.54 187.45)"/><path class="cls-4" d="M2078,1248.8c-77.08-35.21-129.82-118.09-129.06-202.83.76-85.84,50.34-162.36,80.85-242.61,73.9-194.38,28.7-428.78-112.19-581.73-64.1-69.59-147.08-123.06-239-145.34s-192.76-11.93-274.85,35.12c-63.28,36.27-118.57,94.46-191.15,101.63-64.67,6.39-125.38-30.13-177.17-69.39s-102.92-84-166.22-98.75a195.15,195.15,0,0,0-96.31,2.16c-30.48,8.54-59.76,25.59-76.61,52.38s-18.57,64.24,1.1,89c22.57,28.46,64.73,32.66,100.29,25.23,18.48-3.86,36.59-10.22,55.44-11.22,70.19-3.74,120.66,63.11,180.53,99.93,43.68,26.87,95.17,38.26,146.16,43.77,37.36,4,75.58,5.09,112.12-3.7,66.87-16.1,121.81-63.33,186-88.1,86.56-33.41,184.34-23.63,273.29,2.78,26.81,8,53.82,17.72,75.29,35.64,31.06,25.92,46.84,65.76,56.62,105a504.8,504.8,0,0,1-10.25,278c-18.54,56.35-47,109.2-63.34,166.23a414.07,414.07,0,0,0-1,223.1c16.21,58.59,46.79,114.9,95,152s115.61,51.94,171.73,28.58" transform="translate(231.54 187.45)"/><circle class="cls-6" cx="1042.29" cy="297.66" r="20.65"/><path class="cls-10" d="M1091.07,829.87a77.1,77.1,0,0,0-103.91-56.43c-16.85,6.66-31.06,19.13-48.29,24.73-17.06,5.55-35.52,3.9-53.32,6.11-21.38,2.66-42.61,11.51-56.78,27.74s-20,40.46-11.3,60.16c8.42,19.09,28.6,30.89,49.1,34.8,16.91,3.23,34.55,2,51.19,6.4,24,6.37,43.28,23.77,60.34,41.76s33.25,37.46,54.57,50.11,49.61,17.15,70.5,3.8c20.09-12.84,28.2-39,26.3-62.79s-12-46-21.36-67.92-18.24-44.93-17.48-68.76" transform="translate(231.54 187.45)"/><path class="cls-10" d="M919.58,672.42c-13.76.71-26.43,9.22-34,20.72s-10.47,25.65-10.09,39.42c.26,9.37,2.33,19.41,9.25,25.73,8.46,7.73,21.33,7.56,32.7,6.15,10.3-1.27,21.19-3.51,28.61-10.78a38.84,38.84,0,0,0,7.88-12.06c6.45-14.4,7.94-31.49,1.6-45.93S934.21,670.3,918.45,671" transform="translate(231.54 187.45)"/><path class="cls-10" d="M1111.28,623.37c-18.28-4.06-37.92,3.45-51.23,16.62s-20.87,31.28-24.27,49.69c-1.13,6.13-1.84,12.47-.54,18.56,3.62,16.94,22.21,27.27,39.53,27.32,16.4,0,32.5-7.25,44-18.92s18.56-27.46,20.56-43.74c1.72-14-1.06-30-12.39-38.47-6.89-5.13-16.1-6.8-22.29-12.76" transform="translate(231.54 187.45)"/><path class="cls-10" d="M1275,743.7c-13.05-1.8-26.29.77-39.14,3.67-21.13,4.76-42.44,10.61-60.69,22.28s-33.27,30.07-36.15,51.53c-1.67,12.39,2,26.92,13.17,32.56,4.65,2.36,10,2.86,15.2,3.24,9.14.67,18.34,1.1,27.46.15,32.91-3.41,63.11-26,75.62-56.67,4.83-11.81,7.14-24.48,9.42-37,1.37-7.55.82-18.1-6.73-19.46" transform="translate(231.54 187.45)"/><path class="cls-10" d="M1256,911.6a248.1,248.1,0,0,0-58.17-.79c-10.33,1.08-21.49,3.28-28.28,11.14-6.65,7.69-7.37,18.84-6.33,29,.56,5.45,1.56,11,4.09,15.81,4.4,8.44,13.17,14.09,22.48,16.07s19.09.61,28.11-2.41a80.54,80.54,0,0,0,42.61-33.77c3.49-5.65,6.32-12,6.06-18.66s-4.36-13.46-10.78-15.14" transform="translate(231.54 187.45)"/></g></svg>